<?xml version="1.0" encoding="iso-8859-1"?>
<!-- Generator: Adobe Illustrator 19.0.0, SVG Export Plug-In . SVG Version: 6.00 Build 0)  -->
<svg version="1.1" id="Capa_1" xmlns="http://www.w3.org/2000/svg" xmlns:xlink="http://www.w3.org/1999/xlink" x="0px" y="0px"
	 viewBox="0 0 512 512" style="enable-background:new 0 0 512 512;" xml:space="preserve">
<path style="fill:#0053BF;" d="M256,16C115.3,16,0,130.3,0,271c0,92.701,51.4,178.2,132.4,223.2c2.401,1.199,4.799,1.8,7.2,1.8
	h232.8c2.401,0,4.799-0.601,7.2-1.8c81-45,132.4-130.499,132.4-223.2C512,130.3,396.7,16,256,16z"/>
<path style="fill:#05377F;" d="M512,271c0,92.701-51.4,178.2-132.4,223.2c-2.401,1.199-4.799,1.8-7.2,1.8H256V16
	C396.7,16,512,130.3,512,271z"/>
<path style="fill:#E1F1FA;" d="M143.485,466C73.377,425.447,30,351.099,30,271c0-59.944,23.579-116.408,66.393-158.992
	C139.189,69.442,195.873,46,256,46s116.811,23.442,159.607,66.008C458.421,154.592,482,211.056,482,271
	c0,80.099-43.377,154.447-113.485,195H143.485z"/>
<path style="fill:#BFE1FF;" d="M368.515,466C438.623,425.447,482,351.099,482,271c0-59.944-23.579-116.408-66.393-158.992
	C372.811,69.442,316.127,46,256,46v420H368.515z"/>
<path style="fill:#65B1FC;" d="M451,271c0,8.401-6.599,15-15,15h-60c-8.401,0-15-6.599-15-15s6.599-15,15-15h44.399
	c-3.3-34.2-17.1-65.099-38.099-90.3l-30.9,30.901c-5.7,5.999-15.3,5.999-21,0c-5.999-5.7-5.999-15.3,0-21l30.901-30.901
	c-25.201-20.999-56.1-34.199-90.3-37.2V151c0,8.401-6.599,15-15,15s-15-6.599-15-15v-44.099c-34.2,2.999-65.4,16.5-90.601,37.5
	l31.201,31.199c5.999,5.7,5.999,15.3,0,21c-5.7,5.999-15.3,5.999-21,0l-31.199-31.201c-21,25.201-34.501,56.4-37.5,90.601H136
	c8.401,0,15,6.599,15,15s-6.599,15-15,15H76c-8.401,0-15-6.599-15-15c0-107.701,87.9-195,195-195C363.701,76,451,163.9,451,271z"/>
<g>
	<path style="fill:#B80000;" d="M286,346h-60c-24.901,0-45,20.099-45,45s20.099,45,45,45h60c24.901,0,45-20.099,45-45
		S310.901,346,286,346z"/>
	<path style="fill:#B80000;" d="M331,391c0,24.901-20.099,45-45,45h-30v-90h30C310.901,346,331,366.099,331,391z"/>
</g>
<path style="fill:#1689FC;" d="M451,271c0,8.401-6.599,15-15,15h-60c-8.401,0-15-6.599-15-15s6.599-15,15-15h44.399
	c-3.3-34.2-17.1-65.099-38.099-90.3l-30.9,30.901c-5.7,5.999-15.3,5.999-21,0c-5.999-5.7-5.999-15.3,0-21l30.901-30.901
	c-25.201-20.999-56.1-34.199-90.3-37.2V151c0,8.401-6.599,15-15,15V76C363.701,76,451,163.9,451,271z"/>
<path style="fill:#0053BF;" d="M256,315c-24.813,0-45-20.187-45-45c0-17.355,25.295-130.738,30.365-153.29
	C242.904,109.864,248.983,105,256,105s13.096,4.864,14.635,11.71C275.705,139.262,301,252.645,301,270
	C301,294.813,280.813,315,256,315z"/>
<path style="fill:#05377F;" d="M301,270c0-17.355-25.295-130.738-30.365-153.29C269.096,109.864,263.017,105,256,105v210
	C280.813,315,301,294.813,301,270z"/>
<g>
</g>
<g>
</g>
<g>
</g>
<g>
</g>
<g>
</g>
<g>
</g>
<g>
</g>
<g>
</g>
<g>
</g>
<g>
</g>
<g>
</g>
<g>
</g>
<g>
</g>
<g>
</g>
<g>
</g>
</svg>
