<?xml version="1.0" encoding="iso-8859-1"?>
<!-- Generator: Adobe Illustrator 19.0.0, SVG Export Plug-In . SVG Version: 6.00 Build 0)  -->
<svg version="1.1" id="Capa_1" xmlns="http://www.w3.org/2000/svg" xmlns:xlink="http://www.w3.org/1999/xlink" x="0px" y="0px"
	 viewBox="0 0 512 512" style="enable-background:new 0 0 512 512;" xml:space="preserve">
<path style="fill:#CB7C52;" d="M443.826,325.404v-21.626h-89.227v178.021h27.236c2.75,0,5,2.25,5,5l0.025-156.142h25.09v156.142
	c0-2.75,2.25-5,5-5h27.26V327.317C443.964,326.727,443.826,326.082,443.826,325.404z"/>
<path style="fill:#FFCFAB;" d="M467.119,303.778h-23.293v21.626c0,2.75,2.25,5,5,5h18.676c2.75,0,5-2.25,5-5v-27.008
	C472.502,301.37,470.091,303.778,467.119,303.778z"/>
<path id="SVGCleanerId_0" style="fill:#08375E;" d="M329.486,499.5c0,2.75,2.25,5,5,5h47.35c2.75,0,5-2.25,5-5v-12.701
	c0-2.75-2.25-5-5-5h-47.35c-2.75,0-5,2.25-5,5V499.5z"/>
<rect x="354.6" y="303.78" style="opacity:0.1;enable-background:new    ;" width="16.486" height="178.02"/>
<path style="fill:#EF5A50;" d="M456.353,132.61h-24.688c-3.5,2.033-7.414,3.428-11.588,4.022C420.005,147.34,411.31,156,400.585,156
	c-10.721,0-19.414-8.653-19.492-19.355c-4.209-0.587-8.156-1.986-11.684-4.034H250.734v25.817c0,1.579-1.277,2.857-2.857,2.857
	h98.67v137.111c0,2.974,2.408,5.382,5.383,5.382h115.189c2.973,0,5.383-2.408,5.383-5.382V148.758
	C472.502,139.854,465.257,132.61,456.353,132.61z"/>
<g style="opacity:0.1;">
	<path d="M363.13,298.397V161.285h-16.584v137.111c0,2.974,2.408,5.382,5.383,5.382h16.584
		C365.539,303.778,363.13,301.37,363.13,298.397z"/>
</g>
<path style="fill:#FFAF68;" d="M415.494,136.963h-29.912c-1.523,0-3.021-0.113-4.488-0.318c0.078,10.702,8.771,19.355,19.492,19.355
	c10.725,0,19.42-8.66,19.492-19.367C418.58,136.846,417.05,136.963,415.494,136.963z"/>
<g>
	<path id="SVGCleanerId_0_1_" style="fill:#08375E;" d="M329.486,499.5c0,2.75,2.25,5,5,5h47.35c2.75,0,5-2.25,5-5v-12.701
		c0-2.75-2.25-5-5-5h-47.35c-2.75,0-5,2.25-5,5V499.5z"/>
</g>
<path style="fill:#08375E;" d="M411.951,499.5c0,2.75,2.25,5,5,5h47.35c2.75,0,5-2.25,5-5v-12.701c0-2.75-2.25-5-5-5h-47.35
	c-2.75,0-5,2.25-5,5V499.5z"/>
<path style="fill:#FFCFAB;" d="M206.927,161.285c-1.578,0-2.855-1.278-2.855-2.857v-30.473c0-1.58,1.277-2.857,2.855-2.857h22.855
	v-10.476c0-1.579,1.279-2.857,2.857-2.857h15.236c1.58,0,2.857,1.278,2.857,2.857v43.806c0,1.579-1.277,2.857-2.857,2.857H206.927z"
	/>
<path style="fill:#FFFFFF;" d="M182.082,215.394c0,1.649-1.35,3-3,3h-33.414c-1.65,0-3-1.351-3-3V181.98c0-1.649,1.35-3,3-3h33.414
	c1.65,0,3,1.351,3,3V215.394z"/>
<path style="fill:#3EAF91;" d="M182.082,215.394c0,1.649-1.35,3-3,3h-33.414c-1.65,0-3-1.351-3-3V181.98c0-1.649,1.35-3,3-3h33.414
	c1.65,0,3,1.351,3,3V215.394z"/>
<path style="fill:#FFFFFF;" d="M198.9,285.379c-1.166,1.166-3.074,1.166-4.242,0l-16.326-16.329c-1.166-1.167-1.166-3.075,0-4.242
	l26.123-26.124c1.166-1.166,3.076-1.166,4.242,0l16.328,16.329c1.168,1.167,1.168,3.075,0,4.242L198.9,285.379z"/>
<path style="fill:#FFAF68;" d="M198.9,285.379c-1.166,1.166-3.074,1.166-4.242,0l-16.326-16.329c-1.166-1.167-1.166-3.075,0-4.242
	l26.123-26.124c1.166-1.166,3.076-1.166,4.242,0l16.328,16.329c1.168,1.167,1.168,3.075,0,4.242L198.9,285.379z"/>
<path style="fill:#34A1D7;" d="M290.601,480.913h-20.225V499.5c0,2.75-2.25,5-5,5h25.225c2.75,0,5-2.25,5-5v-13.587
	C295.601,483.163,293.351,480.913,290.601,480.913z"/>
<g>
	<path style="fill:#ABCCD3;" d="M112.757,331.113c-2.383,1.375-5.455,0.552-6.83-1.83L40.169,215.384
		c-1.375-2.382-0.553-5.455,1.83-6.83l11.766-6.793c2.381-1.375,5.455-0.552,6.83,1.83l65.76,113.899
		c1.375,2.382,0.551,5.455-1.83,6.83L112.757,331.113z"/>
	<path style="fill:#ABCCD3;" d="M270.377,499.5c0,2.75-2.25,5-5,5H133.855c-2.75,0-5-2.25-5-5V326.894c0-2.75,2.25-5,5-5h131.521
		c2.75,0,5,2.25,5,5V499.5H270.377z"/>
</g>
<g style="opacity:0.1;">
	<path d="M156.085,499.5V326.894c0-2.75,2.25-5,5-5h-27.23c-2.75,0-5,2.25-5,5V499.5c0,2.75,2.25,5,5,5h27.23
		C158.335,504.5,156.085,502.25,156.085,499.5z"/>
</g>
<g>
	<path style="fill:#FFAF68;" d="M353.279,54.932c-9.732,0.549-17.463,8.608-17.463,18.497s7.73,17.948,17.463,18.497V54.932z"/>
	<path style="fill:#FFAF68;" d="M447.798,54.91v37.037c9.932-0.334,17.887-8.486,17.887-18.519
		C465.685,63.396,457.73,55.244,447.798,54.91z"/>
</g>
<path style="fill:#FFCFAB;" d="M447.798,104.596c0,17.877-14.463,32.367-32.305,32.367h-29.912c-17.84,0-32.303-14.49-32.303-32.367
	v-64.73c0-17.877,14.463-32.365,32.303-32.365h29.912c17.842,0,32.305,14.488,32.305,32.365V104.596z"/>
<path style="fill:#34A1D7;" d="M415.494,7.5h-29.912c-17.84,0-32.303,14.488-32.303,32.365v16.073H389.3
	c8.602,0,16.412-3.37,22.201-8.854c5.787,5.484,13.598,8.854,22.201,8.854h14.096V39.865C447.798,21.988,433.335,7.5,415.494,7.5z"
	/>
<g style="opacity:0.1;">
	<path d="M369.566,104.596v-64.73c0-17.877,14.463-32.365,32.303-32.365h-16.287c-17.84,0-32.303,14.488-32.303,32.365v64.73
		c0,17.877,14.463,32.367,32.303,32.367h16.287C384.029,136.963,369.566,122.473,369.566,104.596z"/>
</g>
<path d="M145.668,225.894h33.414c5.791,0,10.5-4.71,10.5-10.5V181.98c0-5.79-4.709-10.5-10.5-10.5h-33.414
	c-5.791,0-10.5,4.71-10.5,10.5v33.414C135.168,221.184,139.877,225.894,145.668,225.894z M150.168,186.48h24.414v24.414h-24.414
	V186.48z"/>
<path d="M173.027,274.353l16.33,16.332c1.98,1.978,4.617,3.069,7.422,3.069c2.807,0,5.441-1.091,7.424-3.071l26.127-26.124
	c1.98-1.982,3.07-4.618,3.07-7.425c0-2.807-1.09-5.443-3.07-7.425L214,233.38c-1.98-1.98-4.617-3.071-7.424-3.071
	c-2.809,0-5.445,1.091-7.426,3.072l-26.125,26.126C168.937,263.6,168.937,270.258,173.027,274.353z M206.576,247.169l9.965,9.965
	l-19.762,19.76l-9.963-9.965L206.576,247.169z"/>
<path d="M230.554,230.27c1.391-1.399,2.201-3.33,2.201-5.309c0-1.97-0.811-3.9-2.201-5.3c-1.4-1.4-3.33-2.2-5.309-2.2
	c-1.971,0-3.9,0.8-5.301,2.2c-1.391,1.399-2.199,3.33-2.199,5.3c0,1.979,0.809,3.91,2.199,5.309c1.4,1.391,3.33,2.191,5.301,2.191
	C227.224,232.46,229.154,231.66,230.554,230.27z"/>
<path d="M142.054,256.26c-1.4,1.39-2.199,3.33-2.199,5.3c0,1.98,0.799,3.91,2.199,5.31c1.4,1.39,3.33,2.19,5.301,2.19
	c1.98,0,3.91-0.8,5.311-2.19c1.398-1.4,2.199-3.33,2.199-5.31c0-1.97-0.801-3.899-2.199-5.3c-1.4-1.4-3.33-2.2-5.311-2.2
	C145.384,254.06,143.455,254.859,142.054,256.26z"/>
<path d="M204.605,196.8c1.971,0,3.91-0.8,5.299-2.19c1.4-1.399,2.201-3.34,2.201-5.31s-0.801-3.9-2.201-5.3
	c-1.389-1.4-3.318-2.2-5.299-2.2c-1.98,0-3.91,0.8-5.301,2.2c-1.4,1.39-2.199,3.33-2.199,5.3s0.799,3.91,2.199,5.31
	C200.695,196,202.625,196.8,204.605,196.8z"/>
<path d="M290.601,473.413h-12.725v-78.41c0-4.142-3.358-7.5-7.5-7.5c-4.143,0-7.5,3.358-7.5,7.5V497H136.355V329.394h126.521v26.61
	c0,4.143,3.357,7.5,7.5,7.5c4.142,0,7.5-3.357,7.5-7.5v-29.11c0-6.893-5.608-12.5-12.5-12.5H133.855
	c-0.221,0-0.436,0.021-0.652,0.033c-0.115-0.229-0.223-0.462-0.354-0.687l-65.76-113.899c-2.223-3.853-6.377-6.246-10.838-6.246
	c-2.188,0-4.344,0.578-6.236,1.671l-11.766,6.793c-2.887,1.666-4.953,4.362-5.818,7.592c-0.865,3.229-0.424,6.597,1.242,9.483
	l65.758,113.899c2.225,3.853,6.379,6.246,10.84,6.246c2.186,0,4.342-0.578,6.236-1.671l4.848-2.798V499.5
	c0,6.893,5.607,12.5,12.5,12.5h156.746c6.892,0,12.5-5.607,12.5-12.5v-13.587C303.101,479.021,297.494,473.413,290.601,473.413z
	 M111.171,323.368L47.914,213.799l7.436-4.293l63.26,109.569L111.171,323.368z M288.101,497h-10.225v-8.587h10.225V497z"/>
<path d="M388.191,79.569V74.67c0-4.143-3.357-7.5-7.5-7.5s-7.5,3.357-7.5,7.5v4.899c0,4.143,3.357,7.5,7.5,7.5
	S388.191,83.712,388.191,79.569z"/>
<path d="M420.384,67.17c-4.143,0-7.5,3.357-7.5,7.5v4.899c0,4.143,3.357,7.5,7.5,7.5c4.142,0,7.5-3.357,7.5-7.5V74.67
	C427.884,70.527,424.527,67.17,420.384,67.17z"/>
<path d="M413.919,97.652c-4.022-0.973-8.078,1.504-9.051,5.531c-0.482,2-2.264,3.396-4.33,3.396c-2.066,0-3.848-1.396-4.332-3.396
	c-0.973-4.026-5.025-6.508-9.051-5.528c-4.027,0.973-6.502,5.025-5.529,9.052c2.117,8.757,9.892,14.873,18.912,14.873
	s16.797-6.117,18.912-14.877C420.421,102.677,417.945,98.625,413.919,97.652z"/>
<path d="M446.664,196.5c4.142,0,7.5-3.357,7.5-7.5v-20.864c0-4.143-3.358-7.5-7.5-7.5c-4.143,0-7.5,3.357-7.5,7.5V189
	C439.164,193.143,442.521,196.5,446.664,196.5z"/>
<path d="M467.502,337.904c6.892,0,12.5-5.607,12.5-12.5V148.758c0-13.039-10.609-23.647-23.648-23.647h-6.752
	c3.611-5.997,5.697-13.015,5.697-20.515v-6.428c10.375-3.425,17.887-13.217,17.887-24.739s-7.512-21.314-17.887-24.739v-8.824
	C455.298,17.884,437.441,0,415.494,0h-29.912c-21.947,0-39.803,17.884-39.803,39.865v8.966
	c-10.156,3.548-17.463,13.231-17.463,24.598s7.307,21.05,17.463,24.598v6.569c0,7.5,2.086,14.518,5.695,20.515h-42.389
	c-4.142,0-7.5,3.357-7.5,7.5c0,4.143,3.358,7.5,7.5,7.5h58.461c2.16,1.104,4.432,2.024,6.797,2.724
	c2.857,11.841,13.535,20.666,26.242,20.666c12.717,0,23.4-8.84,26.248-20.695c2.33-0.695,4.566-1.605,6.697-2.694h22.822
	c4.768,0,8.648,3.879,8.648,8.647v147.52h-10.838V226c0-4.143-3.358-7.5-7.5-7.5c-4.143,0-7.5,3.357-7.5,7.5v70.278h-85.117V161.285
	c0-4.143-3.357-7.5-7.5-7.5h-88.313V140.11h16.852c4.143,0,7.5-3.357,7.5-7.5s-3.357-7.5-7.5-7.5h-16.852v-10.488
	c0-5.711-4.646-10.357-10.357-10.357H232.64c-5.711,0-10.357,4.646-10.357,10.357v2.976h-15.355
	c-5.711,0-10.355,4.646-10.355,10.357v30.473c0,5.711,4.645,10.357,10.355,10.357h132.119v129.611
	c0,5.394,3.336,10.018,8.053,11.934v163.969h-12.613c-6.892,0-12.5,5.608-12.5,12.5V499.5c0,6.893,5.608,12.5,12.5,12.5h47.35
	c6.893,0,12.5-5.607,12.5-12.5l0.025-161.344h10.09V499.5c0,6.893,5.607,12.5,12.5,12.5h47.35c6.893,0,12.5-5.607,12.5-12.5v-12.701
	c0-6.892-5.607-12.5-12.5-12.5h-12.59V337.904H467.502z M455.298,65.998c1.789,1.961,2.887,4.566,2.887,7.431
	c0,2.864-1.098,5.47-2.887,7.431V65.998z M345.779,80.369c-1.535-1.898-2.463-4.311-2.463-6.94c0-2.63,0.928-5.042,2.463-6.94
	V80.369z M400.585,148.5c-3.56,0-6.754-1.565-8.949-4.037h17.898C407.339,146.935,404.146,148.5,400.585,148.5z M440.298,104.596
	c0,13.712-11.127,24.867-24.805,24.867h-29.912c-13.676,0-24.803-11.155-24.803-24.867V63.438H389.3
	c7.992,0,15.678-2.371,22.201-6.771c6.521,4.399,14.207,6.771,22.201,6.771h6.596L440.298,104.596L440.298,104.596z M440.298,48.438
	h-6.596c-6.363,0-12.416-2.414-17.043-6.799c-2.893-2.74-7.424-2.74-10.316,0c-4.627,4.385-10.68,6.799-17.043,6.799h-28.521v-8.573
	c0-13.711,11.127-24.865,24.803-24.865h29.912c13.678,0,24.805,11.154,24.805,24.865L440.298,48.438L440.298,48.438z
	 M243.234,153.785h-31.662v-21.188h18.211c4.143,0,7.5-3.357,7.5-7.5v-5.833h5.951V153.785z M451.326,311.278h13.676v11.626h-13.676
	V311.278z M379.335,497h-42.35v-7.701h42.35V497z M461.8,497h-42.35v-7.701h42.35V497z M419.451,474.299V330.656
	c0-4.143-3.357-7.5-7.5-7.5h-25.09c-4.142,0-7.5,3.357-7.5,7.5v143.642h-17.262v-163.02h74.227v14.126
	c0,1.045,0.143,2.055,0.385,3.025v145.869L419.451,474.299L419.451,474.299z"/>
<g>
</g>
<g>
</g>
<g>
</g>
<g>
</g>
<g>
</g>
<g>
</g>
<g>
</g>
<g>
</g>
<g>
</g>
<g>
</g>
<g>
</g>
<g>
</g>
<g>
</g>
<g>
</g>
<g>
</g>
</svg>
