<?xml version="1.0"?>
<svg xmlns="http://www.w3.org/2000/svg" xmlns:xlink="http://www.w3.org/1999/xlink" xmlns:svgjs="http://svgjs.com/svgjs" version="1.1" width="512" height="512" x="0" y="0" viewBox="0 0 496 496" style="enable-background:new 0 0 512 512" xml:space="preserve" class=""><g><path xmlns="http://www.w3.org/2000/svg" d="m408 440v48h-112v-48zm0 0" fill="#fca5a5" data-original="#ff826e" style="" class=""/><path xmlns="http://www.w3.org/2000/svg" d="m200 440v48h-112v-48zm0 0" fill="#fca5a5" data-original="#ff826e" style="" class=""/><path xmlns="http://www.w3.org/2000/svg" d="m316.078125 157.199219 43.921875-13.199219 24 16 24-16 57.199219 17.121094c13.519531 4.078125 22.800781 16.558594 22.800781 30.71875v64.160156h-136v-64.160156c0-14.160156-9.28125-26.640625-22.800781-30.71875zm0 0" fill="#fbbf24" data-original="#fcd770" style="" class=""/><path xmlns="http://www.w3.org/2000/svg" d="m136 144 43.921875 13.199219-13.121094 3.921875c-13.519531 4.078125-22.800781 16.558594-22.800781 30.71875v64.160156h-136v-64.160156c0-14.160156 9.28125-26.640625 22.800781-30.71875l57.199219-17.121094 24 16zm0 0" fill="#fbbf24" data-original="#fcd770" style="" class=""/><path xmlns="http://www.w3.org/2000/svg" d="m352 191.839844v64.160156h-208v-64.160156c0-14.160156 9.28125-26.640625 22.800781-30.71875l13.121094-3.921875h.078125l44-13.199219 24 16 24-16 44 13.199219h.078125l13.121094 3.921875c13.519531 4.078125 22.800781 16.558594 22.800781 30.71875zm0 0" fill="#60a5fa" data-original="#e6e9ed" style="" class=""/><g xmlns="http://www.w3.org/2000/svg" fill="#b27946"><path d="m432 56h-30.078125c-11.761719 0-23.363281-2.71875-33.921875-8-5.121094 5.121094-12.078125 8-19.28125 8h-12.71875c0-26.480469 21.519531-48 48-48s48 21.519531 48 48zm0 0" fill="#b27946" data-original="#b27946" style="" class=""/><path d="m296 56h-30.078125c-11.761719 0-23.363281-2.71875-33.921875-8-5.121094 5.121094-12.078125 8-19.28125 8h-12.71875c0-26.480469 21.519531-48 48-48s48 21.519531 48 48zm0 0" fill="#b27946" data-original="#b27946" style="" class=""/><path d="m160 56h-12.71875c-7.203125 0-14.160156-2.878906-19.28125-8-10.558594 5.28125-22.160156 8-33.921875 8h-30.078125c0-26.480469 21.519531-48 48-48s48 21.519531 48 48zm0 0" fill="#b27946" data-original="#b27946" style="" class=""/></g><path xmlns="http://www.w3.org/2000/svg" d="m432 56v24c0 17.761719-9.679688 33.199219-24 41.519531v22.480469l-24 16-24-16v-22.480469c-14.320312-8.320312-24-23.757812-24-41.519531v-24h12.71875c7.203125 0 14.160156-2.878906 19.28125-8 10.558594 5.28125 22.160156 8 33.921875 8zm0 0" fill="#f0d0b4" data-original="#f0d0b4" style="" class=""/><path xmlns="http://www.w3.org/2000/svg" d="m296 56v24c0 17.761719-9.679688 33.199219-24 41.519531v22.480469l-24 16-24-16v-22.480469c-14.320312-8.320312-24-23.757812-24-41.519531v-24h12.71875c7.203125 0 14.160156-2.878906 19.28125-8 10.558594 5.28125 22.160156 8 33.921875 8zm0 0" fill="#f0d0b4" data-original="#f0d0b4" style="" class=""/><path xmlns="http://www.w3.org/2000/svg" d="m160 56v24c0 17.761719-9.679688 33.199219-24 41.519531v22.480469l-24 16-24-16v-22.480469c-14.320312-8.320312-24-23.757812-24-41.519531v-24h30.078125c11.761719 0 23.363281-2.71875 33.921875-8 5.121094 5.121094 12.078125 8 19.28125 8zm0 0" fill="#f0d0b4" data-original="#f0d0b4" style="" class=""/><path xmlns="http://www.w3.org/2000/svg" d="m302.878906 340.960938c-1.4375-7.28125-4.320312-14-8.238281-20l4.238281-8.5625-11.277344-11.277344-8.5625 4.238281c-6-3.917969-12.71875-6.800781-20-8.238281l-3.039062-9.121094h-16l-3.039062 9.121094c-7.28125 1.4375-14 4.320312-20 8.238281l-8.5625-4.238281-11.277344 11.277344 4.238281 8.5625c-3.917969 6-6.800781 12.71875-8.238281 20l-9.121094 3.039062v16l9.121094 3.039062c1.4375 7.28125 4.320312 14 8.238281 20l-4.238281 8.5625 11.277344 11.277344 8.5625-4.238281c6 3.917969 12.71875 6.800781 20 8.238281l3.039062 9.121094h16l3.039062-9.121094c7.28125-1.4375 14-4.320312 20-8.238281l8.5625 4.238281 11.277344-11.277344-4.238281-8.5625c3.917969-6 6.800781-12.71875 8.238281-20l9.121094-3.039062v-16zm-54.878906 35.039062c-13.28125 0-24-10.71875-24-24s10.71875-24 24-24 24 10.71875 24 24-10.71875 24-24 24zm0 0" fill="#fbbf24" data-original="#fcd770" style="" class=""/><path xmlns="http://www.w3.org/2000/svg" d="m496 191.808594c0-17.800782-11.457031-33.199219-28.503906-38.3125l-51.496094-15.449219v-12.144531c14.910156-10.414063 24-27.605469 24-45.902344v-24c0-30.878906-25.121094-56-56-56s-56 25.121094-56 56v24c0 18.304688 9.089844 35.488281 24 45.902344v12.144531l-36 10.800781-36-10.800781v-12.144531c14.910156-10.414063 24-27.605469 24-45.902344v-24c0-30.878906-25.121094-56-56-56s-56 25.121094-56 56v24c0 18.304688 9.089844 35.488281 24 45.902344v12.144531l-36 10.800781-36-10.800781v-12.144531c14.910156-10.414063 24-27.605469 24-45.902344v-24c0-30.878906-25.121094-56-56-56s-56 25.121094-56 56v24c0 18.304688 9.089844 35.488281 24 45.902344v12.144531l-51.496094 15.449219c-17.046875 5.113281-28.503906 20.511718-28.503906 38.3125v72.191406h40v96h96v72h-56v64h128v-64h-56v-72h24v5.769531l10.351562 3.453125c1.375 4.953125 3.34375 9.707032 5.878907 14.183594l-4.878907 9.769531 19.472657 19.480469 9.769531-4.886719c4.484375 2.535157 9.230469 4.503907 14.183594 5.878907l3.453125 10.351562h27.53125l3.453125-10.359375c4.953125-1.375 9.695312-3.34375 14.183594-5.878906l9.769531 4.886719 19.472656-19.480469-4.878906-9.769531c2.535156-4.488282 4.503906-9.230469 5.878906-14.183594l10.359375-3.445313v-5.769531h24v72h-56v64h128v-64h-56v-72h96v-96h40zm-304 288.191406h-96v-32h96zm208 0h-96v-32h96zm-16-464c19.3125 0 35.472656 13.769531 39.191406 32h-21.304687c-10.472657 0-20.949219-2.472656-30.3125-7.160156l-5.160157-2.574219-4.078124 4.078125c-3.582032 3.59375-8.566407 5.65625-13.648438 5.65625h-3.878906c3.71875-18.230469 19.878906-32 39.191406-32zm-40 64v-16h4.6875c7.496094 0 14.625-2.320312 20.585938-6.617188 10.285156 4.34375 21.453124 6.617188 32.613281 6.617188h22.113281v16c0 14.191406-7.664062 27.457031-20.007812 34.609375l-3.992188 2.3125v22.796875l-16 10.664062-16-10.664062v-22.796875l-3.992188-2.3125c-12.34375-7.152344-20.007812-20.417969-20.007812-34.609375zm-96-64c19.3125 0 35.472656 13.769531 39.191406 32h-21.304687c-10.472657 0-20.949219-2.472656-30.3125-7.160156l-5.160157-2.574219-4.078124 4.078125c-3.582032 3.59375-8.566407 5.65625-13.648438 5.65625h-3.878906c3.71875-18.230469 19.878906-32 39.191406-32zm-40 64v-16h4.6875c7.496094 0 14.625-2.320312 20.585938-6.617188 10.285156 4.34375 21.453124 6.617188 32.613281 6.617188h22.113281v16c0 14.191406-7.664062 27.457031-20.007812 34.609375l-3.992188 2.3125v22.796875l-16 10.664062-16-10.664062v-22.796875l-3.992188-2.3125c-12.34375-7.152344-20.007812-20.417969-20.007812-34.609375zm14.695312 72.742188 25.304688 16.875 25.304688-16.875 53.589843 16.082031c10.234375 3.0625 17.105469 12.304687 17.105469 22.984375v56.191406h-192v-56.191406c0-10.679688 6.871094-19.921875 17.105469-22.984375zm-110.695312-136.742188c19.3125 0 35.472656 13.769531 39.191406 32h-3.878906c-5.082031 0-10.066406-2.0625-13.65625-5.65625l-4.082031-4.078125-5.160157 2.574219c-9.359374 4.6875-19.839843 7.160156-30.300781 7.160156h-21.304687c3.71875-18.230469 19.878906-32 39.191406-32zm-40 64v-16h22.113281c11.160157 0 22.335938-2.273438 32.613281-6.617188 5.960938 4.296876 13.097657 6.617188 20.585938 6.617188h4.6875v16c0 14.191406-7.664062 27.457031-20.007812 34.609375l-3.992188 2.3125v22.796875l-16 10.664062-16-10.664062v-22.796875l-3.992188-2.3125c-12.34375-7.152344-20.007812-20.417969-20.007812-34.609375zm-56 111.808594c0-10.679688 6.871094-19.921875 17.105469-22.984375l53.589843-16.082031 25.304688 16.875 25.304688-16.875 17.496093 5.25c-11.503906 7.160156-18.800781 19.6875-18.800781 33.816406v56.191406h-120zm288 162.421875-8.03125 2.671875-.914062 4.554687c-1.222657 6.136719-3.613282 11.886719-7.09375 17.109375l-2.578126 3.859375 3.792969 7.582031-3.160156 3.167969-7.574219-3.800781-3.867187 2.578125c-5.222657 3.488281-10.980469 5.863281-17.109375 7.09375l-4.554688.90625-2.679687 8.046875h-4.46875l-2.683594-8.039062-4.550781-.90625c-6.128906-1.222657-11.878906-3.605469-17.113282-7.09375l-3.863281-2.578126-7.574219 3.800782-3.160156-3.167969 3.792969-7.582031-2.578125-3.859375c-3.488281-5.214844-5.871094-10.972657-7.09375-17.109375l-.914062-4.554688-8.023438-2.679687v-4.46875l8.03125-2.671875.914062-4.554688c1.222657-6.136718 3.613282-11.886718 7.09375-17.109375l2.578126-3.859375-3.792969-7.589844 3.160156-3.160156 7.574219 3.800782 3.867187-2.578126c5.222657-3.488281 10.980469-5.863281 17.109375-7.09375l4.554688-.90625 2.679687-8.039062h4.46875l2.683594 8.039062 4.550781.90625c6.128906 1.222657 11.878906 3.605469 17.113282 7.09375l3.863281 2.578126 7.574219-3.800782 3.160156 3.160156-3.792969 7.589844 2.578125 3.859375c3.488281 5.214844 5.871094 10.972657 7.09375 17.109375l.914062 4.554688 8.023438 2.679687zm136-10.230469h-120v-5.769531l-10.351562-3.453125c-1.375-4.953125-3.34375-9.707032-5.886719-14.183594l4.886719-9.777344-19.472657-19.472656-9.769531 4.886719c-4.484375-2.535157-9.230469-4.503907-14.183594-5.878907l-3.453125-10.351562h-27.53125l-3.453125 10.359375c-4.953125 1.375-9.695312 3.34375-14.183594 5.878906l-9.769531-4.886719-19.472656 19.472657 4.886719 9.777343c-2.535156 4.488282-4.503906 9.230469-5.886719 14.183594l-10.359375 3.445313v5.769531h-120v-80h384zm40-96h-120v-56.191406c0-14.136719-7.296875-26.65625-18.800781-33.816406l17.496093-5.25 25.304688 16.875 25.304688-16.875 53.589843 16.082031c10.234375 3.0625 17.105469 12.304687 17.105469 22.984375zm0 0" fill="#000000" data-original="#000000" style="" class=""/><path xmlns="http://www.w3.org/2000/svg" d="m248 320c-17.648438 0-32 14.351562-32 32s14.351562 32 32 32 32-14.351562 32-32-14.351562-32-32-32zm0 48c-8.824219 0-16-7.175781-16-16s7.175781-16 16-16 16 7.175781 16 16-7.175781 16-16 16zm0 0" fill="#000000" data-original="#000000" style="" class=""/><path xmlns="http://www.w3.org/2000/svg" d="m72 312h16v16h-16zm0 0" fill="#000000" data-original="#000000" style="" class=""/><path xmlns="http://www.w3.org/2000/svg" d="m104 312h16v16h-16zm0 0" fill="#000000" data-original="#000000" style="" class=""/><path xmlns="http://www.w3.org/2000/svg" d="m136 312h16v16h-16zm0 0" fill="#000000" data-original="#000000" style="" class=""/><path xmlns="http://www.w3.org/2000/svg" d="m344 312h16v16h-16zm0 0" fill="#000000" data-original="#000000" style="" class=""/><path xmlns="http://www.w3.org/2000/svg" d="m376 312h16v16h-16zm0 0" fill="#000000" data-original="#000000" style="" class=""/><path xmlns="http://www.w3.org/2000/svg" d="m408 312h16v16h-16zm0 0" fill="#000000" data-original="#000000" style="" class=""/></g></svg>
