<?xml version="1.0"?>
<svg xmlns="http://www.w3.org/2000/svg" xmlns:xlink="http://www.w3.org/1999/xlink" xmlns:svgjs="http://svgjs.com/svgjs" version="1.1" width="512" height="512" x="0" y="0" viewBox="0 0 512 512" style="enable-background:new 0 0 512 512" xml:space="preserve" class=""><g><g xmlns="http://www.w3.org/2000/svg"><g><g><ellipse cx="111.593" cy="205.5" fill="#6ee7b7" rx="54.421" ry="54.421" transform="matrix(.383 -.924 .924 .383 -120.969 229.957)" data-original="#a4fcc4" style="" class=""/></g><g><path d="m109.941 220.559c-1.685 0-3.382-.425-4.924-1.299l-9.367-5.305c-4.806-2.721-6.495-8.823-3.774-13.629 2.721-4.805 8.823-6.496 13.629-3.773l2.748 1.556 8.125-8.125c3.905-3.903 10.236-3.903 14.142 0 3.905 3.905 3.905 10.237-.001 14.143l-13.504 13.504c-1.925 1.924-4.485 2.928-7.074 2.928z" fill="#4f46e5" data-original="#020288" style="" class=""/></g><g><g><circle cx="111.593" cy="373.282" fill="#6ee7b7" r="54.421" data-original="#a4fcc4" style="" class=""/></g><g><path d="m109.941 388.341c-1.685 0-3.382-.425-4.924-1.299l-9.367-5.305c-4.806-2.721-6.495-8.823-3.774-13.629s8.823-6.496 13.629-3.773l2.748 1.556 8.125-8.126c3.905-3.904 10.237-3.904 14.142 0 3.905 3.905 3.906 10.237.001 14.143l-13.504 13.505c-1.927 1.924-4.487 2.928-7.076 2.928z" fill="#4f46e5" data-original="#020288" style="" class=""/></g></g></g><g fill="#020288"><path d="m488.011 20h-57.809c-13.227 0-23.989 10.762-23.989 23.989v365.563c0 .006 0 3.405 1.465 5.213l42.824 72.329c1.8 3.04 5.071 4.905 8.605 4.905s6.805-1.865 8.605-4.905l42.824-72.329c1.231-1.893 1.465-5.206 1.465-5.213v-365.563c-.001-13.227-10.763-23.989-23.99-23.989zm-61.798 379.553v-296.553h22.894v296.553zm42.893-296.553h22.894v296.553h-22.894zm-42.893-59.011c0-2.199 1.79-3.989 3.989-3.989h57.809c2.2 0 3.989 1.79 3.989 3.989v39.011h-65.787zm32.893 418.383-25.352-42.819h50.703z" fill="#4f46e5" data-original="#020288" style="" class=""/><path d="m325.529 210.396h-122.582c-5.523 0-10 4.477-10 10 0 5.522 4.477 10 10 10h122.582c5.523 0 10-4.478 10-10s-4.477-10-10-10z" fill="#4f46e5" data-original="#020288" style="" class=""/><path d="m202.947 170.52c-5.523 0-10 4.478-10 10 0 5.523 4.477 10 10 10h79.688c5.523 0 10-4.477 10-10 0-5.522-4.477-10-10-10z" fill="#4f46e5" data-original="#020288" style="" class=""/><path d="m325.529 378.179h-122.582c-5.523 0-10 4.478-10 10s4.477 10 10 10h122.582c5.523 0 10-4.478 10-10 0-5.523-4.477-10-10-10z" fill="#4f46e5" data-original="#020288" style="" class=""/><path d="m202.947 358.302h79.688c5.523 0 10-4.478 10-10s-4.477-10-10-10h-79.688c-5.523 0-10 4.478-10 10s4.477 10 10 10z" fill="#4f46e5" data-original="#020288" style="" class=""/><path d="m356.026 20.5h-329.351c-14.709 0-26.675 11.966-26.675 26.675v417.65c0 14.709 11.966 26.675 26.675 26.675h329.351c14.709 0 26.675-11.966 26.675-26.675v-417.65c0-14.709-11.967-26.675-26.675-26.675zm6.675 444.325c0 3.681-2.994 6.675-6.675 6.675h-329.351c-3.681 0-6.675-2.994-6.675-6.675v-417.65c0-3.681 2.994-6.675 6.675-6.675h329.351c3.681 0 6.675 2.994 6.675 6.675z" fill="#4f46e5" data-original="#020288" style="" class=""/><path d="m303.152 98.649c0-5.522-4.477-10-10-10h-203.603c-5.523 0-10 4.478-10 10s4.477 10 10 10h203.603c5.523 0 10-4.477 10-10z" fill="#4f46e5" data-original="#020288" style="" class=""/></g></g></g></svg>
